<?xml version="1.0" standalone="no"?>
<!DOCTYPE svg PUBLIC "-//W3C//DTD SVG 20010904//EN"
 "http://www.w3.org/TR/2001/REC-SVG-20010904/DTD/svg10.dtd">
<svg version="1.0" xmlns="http://www.w3.org/2000/svg"
 width="1265.000000pt" height="275.000000pt" viewBox="0 0 1265.000000 275.000000"
 preserveAspectRatio="xMidYMid meet">
<metadata>
Created by potrace 1.16, written by Peter Selinger 2001-2019
</metadata>
<g transform="translate(0.000000,275.000000) scale(0.100000,-0.100000)"
fill="#000000" stroke="none">
<path d="M3400 2526 l0 -224 120 -22 120 -22 0 -1119 0 -1119 244 0 c261 0
256 -1 256 49 0 15 7 14 58 -11 94 -47 153 -58 308 -58 161 0 232 16 341 76
206 114 353 365 394 671 17 132 6 474 -20 588 -72 321 -212 530 -426 636 -163
81 -380 89 -552 20 l-53 -21 0 390 0 390 -395 0 -395 0 0 -224z m650 -398 l0
-471 54 59 c100 110 227 164 386 164 317 0 531 -227 606 -640 25 -136 25 -434
1 -550 -48 -222 -135 -377 -268 -475 -228 -168 -596 -124 -750 90 -39 54 -44
49 -54 -50 -12 -127 1 -116 -139 -113 l-121 3 -3 1106 -2 1107 -120 22 -120
22 0 99 0 99 265 0 265 0 0 -472z"/>
<path d="M4327 1619 c-96 -23 -208 -113 -256 -207 -20 -40 -21 -54 -21 -419
l0 -378 40 -62 c82 -126 171 -176 320 -181 79 -3 105 0 154 18 190 72 281 312
255 677 -17 253 -86 422 -204 503 -75 51 -192 72 -288 49z m203 -134 c69 -36
130 -150 155 -290 24 -134 17 -383 -14 -477 -44 -137 -115 -193 -241 -193 -91
1 -138 22 -199 91 l-41 47 0 352 0 352 41 47 c64 73 126 98 217 90 30 -2 66
-11 82 -19z"/>
<path d="M7700 2526 l0 -224 120 -22 120 -22 0 -144 0 -143 -42 18 c-79 33
-151 46 -263 45 -196 -1 -324 -54 -461 -189 -193 -191 -284 -471 -284 -875 0
-303 56 -514 186 -696 86 -123 198 -205 337 -249 68 -22 96 -25 223 -25 130 0
154 3 222 26 42 14 87 32 99 40 31 19 33 18 33 -16 l0 -30 370 0 370 0 0 229
0 229 -22 5 c-13 3 -67 13 -120 22 l-98 17 0 1114 0 1114 -395 0 -395 0 0
-224z m650 -1030 l0 -1104 50 -11 c28 -6 82 -16 120 -22 l70 -12 0 -103 0
-104 -239 0 c-147 0 -242 4 -246 10 -3 5 -11 50 -17 98 l-11 89 -67 -68 c-113
-116 -262 -169 -431 -155 -143 12 -255 64 -352 165 -147 153 -217 370 -217
676 0 365 91 638 267 794 101 91 210 131 353 131 153 0 256 -41 367 -144 l63
-58 0 340 0 340 -22 5 c-13 3 -67 13 -120 22 l-98 17 0 99 0 99 265 0 265 0 0
-1104z"/>
<path d="M7610 1616 c-210 -56 -324 -325 -307 -721 3 -71 13 -159 22 -194 36
-146 110 -252 210 -302 44 -21 63 -24 165 -24 97 0 122 3 162 22 58 26 127 90
167 152 l31 48 0 405 0 406 -43 58 c-96 131 -258 191 -407 150z m179 -122 c39
-11 67 -29 102 -64 l49 -49 0 -362 0 -362 -36 -44 c-63 -77 -160 -108 -264
-83 -138 33 -200 174 -200 449 0 395 127 581 349 515z"/>
<path d="M0 2371 c0 -127 1 -231 3 -232 1 0 54 -10 117 -22 l115 -22 3 -786 2
-786 -72 -12 c-40 -7 -94 -17 -120 -23 l-48 -10 0 -229 0 -229 493 0 c270 0
537 5 591 10 240 23 427 111 595 280 114 113 228 304 277 463 10 31 21 57 25
57 3 0 10 -27 13 -61 4 -34 18 -100 32 -147 84 -290 272 -499 529 -589 73 -25
94 -28 257 -31 134 -3 196 0 253 12 158 33 315 119 432 238 l62 63 -100 180
c-56 99 -112 200 -126 223 l-25 44 -81 -80 c-132 -127 -219 -166 -377 -166
-86 -1 -99 2 -141 26 -26 15 -59 42 -75 60 -31 38 -71 119 -80 166 l-6 32 511
0 511 0 0 178 c0 332 -26 484 -112 661 -43 91 -62 117 -137 192 -145 145 -291
201 -521 202 -147 1 -216 -14 -331 -74 -177 -92 -313 -244 -403 -453 l-33 -76
-7 78 c-48 540 -370 956 -824 1064 -81 19 -126 21 -644 25 l-558 5 0 -231z
m1124 54 c181 -32 315 -103 452 -239 52 -53 111 -124 138 -168 141 -230 205
-539 178 -861 -28 -326 -118 -554 -291 -739 -127 -136 -247 -208 -419 -250
-83 -21 -109 -22 -572 -23 l-485 0 0 100 0 100 95 18 c52 10 105 20 118 22
l22 5 0 903 0 902 -102 18 c-57 10 -111 21 -120 23 -16 5 -18 19 -18 105 l0
99 459 0 c363 0 476 -3 545 -15z m1820 -560 c256 -54 425 -257 471 -564 8 -53
15 -160 15 -238 l0 -143 -516 0 -517 0 6 -82 c11 -159 85 -325 177 -398 67
-53 126 -73 226 -78 165 -8 299 32 417 122 27 21 50 36 52 34 13 -14 105 -187
105 -196 0 -19 -118 -101 -195 -137 -113 -53 -192 -68 -345 -69 -155 -1 -222
13 -340 71 -110 53 -230 176 -294 301 -71 140 -97 251 -103 453 -8 248 18 387
107 557 97 187 261 326 435 368 69 17 217 17 299 -1z"/>
<path d="M650 1289 l0 -901 218 4 c189 4 224 7 274 26 170 62 296 194 380 397
122 297 112 734 -22 1012 -67 138 -174 254 -286 309 -95 46 -144 54 -361 54
l-203 0 0 -901z m503 744 c123 -58 220 -180 276 -349 41 -123 51 -194 51 -375
0 -238 -38 -396 -130 -538 -110 -169 -236 -230 -482 -231 l-78 0 0 766 0 766
148 -4 c141 -3 150 -5 215 -35z"/>
<path d="M2710 1626 c-128 -34 -230 -157 -280 -338 -11 -40 -20 -83 -20 -95
l0 -23 365 0 365 0 0 48 c0 69 -25 174 -55 235 -50 100 -130 159 -242 177 -71
12 -76 12 -133 -4z m166 -127 c43 -13 91 -67 114 -127 l20 -52 -215 0 c-118 0
-215 4 -215 8 0 20 69 118 102 145 55 44 109 52 194 26z"/>
<path d="M12433 2530 c-28 -17 -547 -433 -658 -527 -21 -18 -45 -31 -52 -29
-7 3 -162 125 -344 272 -183 147 -344 273 -358 280 -63 33 -155 7 -193 -55
-23 -36 -23 -42 -29 -476 -4 -242 -7 -542 -8 -667 l-1 -228 -47 0 c-168 -1
-294 -49 -381 -144 -99 -109 -122 -199 -122 -481 l0 -150 -121 217 -121 218
-87 -81 c-100 -94 -187 -141 -293 -159 -133 -23 -221 1 -291 79 -43 48 -60 78
-80 149 l-16 52 511 0 510 0 -4 277 c-5 261 -7 284 -31 377 -64 241 -202 420
-392 510 -184 88 -430 97 -612 24 -194 -79 -376 -272 -468 -500 -56 -138 -77
-265 -77 -468 -1 -256 28 -403 114 -573 82 -165 210 -297 361 -370 133 -65
192 -77 388 -77 127 0 182 4 244 19 147 36 278 108 397 220 l66 61 4 -95 c4
-102 15 -127 72 -169 27 -20 40 -21 374 -21 l347 0 78 38 c136 66 225 178 246
307 7 39 11 269 11 583 0 284 2 517 4 517 3 0 53 -34 112 -75 116 -81 152 -94
219 -75 24 7 56 9 70 6 15 -4 37 0 57 10 17 9 41 17 54 19 12 1 56 22 96 47
40 25 79 48 86 52 9 6 12 -31 12 -167 l0 -174 -100 -7 c-122 -8 -190 -31 -272
-95 -70 -53 -117 -116 -149 -199 -21 -54 -22 -71 -23 -374 -1 -305 0 -317 20
-344 50 -68 53 -69 303 -72 124 -2 288 1 362 6 130 9 139 11 208 47 81 43 142
109 192 207 l29 57 0 1058 c0 1038 0 1059 -20 1091 -42 68 -132 92 -197 52z
m58 -2198 c-32 -62 -92 -123 -145 -148 -50 -23 -57 -24 -358 -24 l-308 0 0
283 c0 275 1 283 24 332 28 60 100 129 164 156 38 16 78 22 204 26 l158 6 -1
316 c-1 174 -4 342 -8 373 l-6 57 -199 -125 c-110 -68 -203 -124 -208 -124 -4
0 -8 85 -8 188 l0 189 93 75 c50 42 209 171 352 286 l260 210 3 -1019 c2 -988
2 -1021 -17 -1057z m-1408 1966 c69 -57 227 -184 351 -283 l226 -180 0 -199
c0 -157 -3 -196 -12 -189 -21 17 -351 247 -381 266 -21 14 -28 15 -32 5 -2 -7
-6 -312 -7 -678 l-3 -665 -23 -47 c-27 -55 -97 -122 -155 -149 -38 -17 -69
-19 -349 -19 l-308 0 0 283 c0 276 1 283 24 333 30 65 86 120 150 150 43 19
75 24 207 30 l157 7 6 36 c3 20 6 333 6 696 0 578 3 705 15 705 2 0 59 -46
128 -102z m-1451 -433 c146 -31 291 -133 367 -260 81 -134 114 -284 115 -520
l1 -160 -518 -3 -518 -2 7 -68 c22 -222 106 -378 246 -452 57 -31 72 -35 165
-38 165 -7 312 38 420 127 20 16 40 28 44 25 8 -5 109 -183 109 -193 0 -14
-109 -90 -179 -125 -119 -60 -204 -79 -366 -79 -164 -1 -228 13 -348 75 -186
97 -316 287 -366 535 -28 137 -29 397 -2 528 61 295 262 536 506 606 75 22
226 24 317 4z"/>
<path d="M9407 1630 c-20 -6 -54 -18 -75 -29 -50 -25 -134 -116 -165 -177 -25
-49 -60 -160 -71 -221 l-5 -33 370 0 370 0 -6 73 c-14 157 -69 273 -159 334
-72 49 -183 71 -259 53z m159 -130 c37 -14 81 -59 103 -105 37 -79 47 -75
-190 -75 l-210 0 7 23 c10 33 48 88 82 120 54 51 131 65 208 37z"/>
<path d="M5995 2034 c-11 -2 -45 -9 -75 -15 -122 -24 -289 -125 -386 -232
-183 -204 -264 -440 -264 -772 0 -354 85 -599 275 -791 91 -91 183 -150 300
-191 78 -27 86 -28 290 -28 192 0 216 2 285 23 143 45 267 122 372 229 l58 58
-101 180 c-55 99 -112 200 -126 223 l-25 44 -81 -80 c-132 -127 -219 -166
-377 -166 -86 -1 -99 2 -141 26 -26 15 -59 42 -75 60 -31 37 -69 116 -79 165
l-7 33 511 0 511 0 0 183 c0 460 -66 677 -265 865 -83 79 -195 140 -305 167
-65 15 -258 28 -295 19z m239 -169 c232 -49 391 -215 457 -479 16 -62 22 -127
26 -273 l6 -193 -518 0 -518 0 6 -77 c13 -160 63 -286 149 -373 77 -79 139
-103 268 -108 163 -6 283 31 405 123 37 29 50 34 56 23 26 -39 99 -178 99
-187 0 -18 -119 -101 -197 -137 -109 -51 -188 -67 -343 -68 -155 -1 -221 13
-340 71 -104 50 -229 176 -287 288 -89 172 -118 323 -110 570 7 196 28 290 97
430 99 202 263 347 445 391 69 17 217 17 299 -1z"/>
<path d="M6000 1627 c-129 -36 -230 -158 -280 -339 -11 -40 -20 -83 -20 -95
l0 -23 365 0 365 0 0 48 c0 68 -26 178 -55 239 -33 66 -111 137 -173 157 -69
22 -151 27 -202 13z m143 -122 c62 -10 125 -77 148 -157 l8 -28 -215 0 c-118
0 -214 4 -214 8 0 20 69 118 102 145 36 29 89 48 118 42 8 -2 32 -6 53 -10z"/>
</g>
</svg>
